<?xml version="1.0" standalone="no"?>
<!DOCTYPE svg PUBLIC "-//W3C//DTD SVG 20010904//EN"
 "http://www.w3.org/TR/2001/REC-SVG-20010904/DTD/svg10.dtd">
<svg version="1.0" xmlns="http://www.w3.org/2000/svg"
 width="70.000000pt" height="70.000000pt" viewBox="0 0 70.000000 70.000000"
 preserveAspectRatio="xMidYMid meet">
<metadata>
Created by potrace 1.14, written by Peter Selinger 2001-2017
</metadata>
<g transform="translate(0.000000,70.000000) scale(0.100000,-0.100000)"
fill="#000000" stroke="none">
<path d="M447 634 c-3 -4 -4 -16 -2 -28 3 -12 2 -34 -3 -51 -7 -24 -14 -30
-38 -31 -16 -1 -32 -2 -35 -3 -4 -1 -6 -18 -5 -38 1 -36 0 -38 -28 -35 -16 2
-36 10 -43 18 -20 19 -51 18 -64 -4 -9 -14 -22 -17 -63 -15 -49 2 -53 0 -93
-43 -23 -25 -47 -43 -52 -40 -12 8 -6 -70 8 -106 5 -14 25 -41 44 -61 l34 -37
-53 0 c-47 0 -53 -2 -47 -18 19 -53 13 -52 342 -52 168 0 311 4 318 8 6 4 16
20 22 35 l11 27 -50 0 c-44 0 -67 12 -41 22 6 2 11 15 13 30 2 14 16 38 30 53
25 25 48 90 48 137 0 30 -18 48 -47 48 -13 0 -23 6 -24 13 -1 6 -2 23 -2 37
-2 21 -7 24 -42 25 l-40 0 3 45 c3 51 -11 81 -29 63 -7 -7 -8 -17 -2 -29 13
-26 -7 -78 -30 -82 -16 -3 -18 2 -12 40 6 42 -11 88 -28 72z m222 -251 c-3
-37 -22 -87 -36 -96 -6 -4 -8 62 -4 126 1 4 10 7 22 7 18 0 20 -5 18 -37z"/>
</g>
</svg>
